<svg viewBox="0 0 1418 1928" fill="none" xmlns="http://www.w3.org/2000/svg">
<g opacity="0.5">
<g filter="url(#filter3_f_2650_26880)">
<ellipse rx="295.694" ry="163.193" transform="matrix(-0.916929 0.39905 0.39905 0.916929 770.213 184.21)" fill="#8349FF"/>
</g>
<g filter="url(#filter4_f_2650_26880)">
<path d="M540.027 201.111C497.614 181.527 481.715 157.068 447.703 125.043C382.048 63.2234 370.241 4.54971 301.161 -53.4167C160.208 -171.694 338.104 354.077 521.898 362.848C637.437 368.361 891.512 238.984 778.409 214.751C733.239 205.073 706.461 224.309 660.332 221.838C612.726 219.289 583.31 221.097 540.027 201.111Z" fill="url(#paint0_linear_2650_26880)"/>
</g>
<g filter="url(#filter5_f_2650_26880)">
<path d="M1021.24 -46.4932C1084.85 -77.846 1137.92 -78.3172 1207.21 -48.1445C1347.6 12.9798 906.64 312.73 903.14 158.556C900.933 61.3464 939.977 -6.4457 1021.24 -46.4932Z" fill="#0013FF"/>
</g>
</g>
<defs>
<filter id="filter3_f_2650_26880" x="191.308" y="-306.36" width="1157.81" height="981.142" filterUnits="userSpaceOnUse" color-interpolation-filters="sRGB">
<feFlood flood-opacity="0" result="BackgroundImageFix"/>
<feBlend mode="normal" in="SourceGraphic" in2="BackgroundImageFix" result="shape"/>
<feGaussianBlur stdDeviation="150" result="effect1_foregroundBlur_2650_26880"/>
</filter>
<filter id="filter4_f_2650_26880" x="0.336914" y="-320.741" width="1056.43" height="933.76" filterUnits="userSpaceOnUse" color-interpolation-filters="sRGB">
<feFlood flood-opacity="0" result="BackgroundImageFix"/>
<feBlend mode="normal" in="SourceGraphic" in2="BackgroundImageFix" result="shape"/>
<feGaussianBlur stdDeviation="125" result="effect1_foregroundBlur_2650_26880"/>
</filter>
<filter id="filter5_f_2650_26880" x="603.052" y="-370.398" width="931.744" height="872.528" filterUnits="userSpaceOnUse" color-interpolation-filters="sRGB">
<feFlood flood-opacity="0" result="BackgroundImageFix"/>
<feBlend mode="normal" in="SourceGraphic" in2="BackgroundImageFix" result="shape"/>
<feGaussianBlur stdDeviation="150" result="effect1_foregroundBlur_2650_26880"/>
</filter>
<linearGradient id="paint0_linear_2650_26880" x1="403.294" y1="70.5815" x2="630.919" y2="268.21" gradientUnits="userSpaceOnUse">
<stop stop-color="#FF0095"/>
<stop offset="1" stop-color="#FFCDFF"/>
</linearGradient>
</defs>
</svg>

